<svg data-v-423bf9ae="" xmlns="http://www.w3.org/2000/svg" viewBox="0 0 445 90" class="iconLeft"><!----><defs data-v-423bf9ae=""><linearGradient data-v-423bf9ae="" gradientTransform="rotate(25)" id="f860e605-bb85-40e8-b90d-9e4b6c86a60c" x1="0%" y1="0%" x2="100%" y2="0%"><stop data-v-423bf9ae="" offset="0%" style="stop-color: rgb(48, 9, 42); stop-opacity: 1;"></stop><stop data-v-423bf9ae="" offset="100%" style="stop-color: rgb(203, 60, 97); stop-opacity: 1;"></stop></linearGradient></defs><!----><g data-v-423bf9ae="" id="8b704ca6-198c-4a13-b083-fb22208862f5" fill="#ffffff" transform="matrix(6.564551175737441,0,0,6.564551175737441,107.24289168710968,15.000000476837158)"><path d="M2.45 5.36L2.45 5.36L2.45 5.36Q2.45 4.70 2.74 4.26L2.74 4.26L2.74 4.26Q3.02 3.81 3.44 3.57L3.44 3.57L3.44 3.57Q3.86 3.33 4.27 3.33L4.27 3.33L4.27 3.33Q4.91 3.33 5.37 3.55L5.37 3.55L5.37 3.55Q5.82 3.77 6.09 4.12L6.09 4.12L6.65 2.34L6.65 2.34Q6.31 2.00 5.79 1.79L5.79 1.79L5.79 1.79Q5.26 1.58 4.41 1.58L4.41 1.58L4.41 1.58Q3.19 1.58 2.30 2.09L2.30 2.09L2.30 2.09Q1.40 2.60 0.91 3.46L0.91 3.46L0.91 3.46Q0.42 4.31 0.42 5.36L0.42 5.36L0.42 5.36Q0.42 6.41 0.93 7.27L0.93 7.27L0.93 7.27Q1.44 8.12 2.32 8.63L2.32 8.63L2.32 8.63Q3.19 9.14 4.27 9.14L4.27 9.14L4.27 9.14Q5.12 9.14 5.93 8.76L5.93 8.76L5.93 8.76Q6.73 8.37 7.28 7.83L7.28 7.83L7.28 4.80L3.92 4.80L3.92 6.13L5.46 6.13L5.46 7.13L5.46 7.13Q5.22 7.25 4.92 7.32L4.92 7.32L4.92 7.32Q4.62 7.39 4.27 7.39L4.27 7.39L4.27 7.39Q3.86 7.39 3.44 7.15L3.44 7.15L3.44 7.15Q3.02 6.92 2.74 6.47L2.74 6.47L2.74 6.47Q2.45 6.02 2.45 5.36ZM10.08 6.17L10.08 6.17L10.08 6.17Q10.08 5.67 10.33 5.31L10.33 5.31L10.33 5.31Q10.58 4.94 11.09 4.94L11.09 4.94L11.09 4.94Q11.59 4.94 11.84 5.31L11.84 5.31L11.84 5.31Q12.10 5.67 12.10 6.17L12.10 6.17L12.10 6.17Q12.10 6.68 11.84 7.04L11.84 7.04L11.84 7.04Q11.59 7.39 11.09 7.39L11.09 7.39L11.09 7.39Q10.58 7.39 10.33 7.04L10.33 7.04L10.33 7.04Q10.08 6.68 10.08 6.17ZM8.26 6.17L8.26 6.17L8.26 6.17Q8.26 7.00 8.62 7.64L8.62 7.64L8.62 7.64Q8.99 8.27 9.63 8.64L9.63 8.64L9.63 8.64Q10.26 9.00 11.09 9.00L11.09 9.00L11.09 9.00Q11.91 9.00 12.55 8.67L12.55 8.67L12.55 8.67Q13.19 8.33 13.55 7.69L13.55 7.69L13.55 7.69Q13.92 7.06 13.92 6.17L13.92 6.17L13.92 6.17Q13.92 5.29 13.55 4.66L13.55 4.66L13.55 4.66Q13.19 4.02 12.55 3.68L12.55 3.68L12.55 3.68Q11.91 3.33 11.09 3.33L11.09 3.33L11.09 3.33Q10.26 3.33 9.63 3.68L9.63 3.68L9.63 3.68Q8.99 4.02 8.62 4.66L8.62 4.66L8.62 4.66Q8.26 5.29 8.26 6.17ZM16.72 6.17L16.72 6.17L16.72 6.17Q16.72 5.67 16.97 5.31L16.97 5.31L16.97 5.31Q17.22 4.94 17.72 4.94L17.72 4.94L17.72 4.94Q18.23 4.94 18.48 5.31L18.48 5.31L18.48 5.31Q18.73 5.67 18.73 6.17L18.73 6.17L18.73 6.17Q18.73 6.68 18.48 7.04L18.48 7.04L18.48 7.04Q18.23 7.39 17.72 7.39L17.72 7.39L17.72 7.39Q17.22 7.39 16.97 7.04L16.97 7.04L16.97 7.04Q16.72 6.68 16.72 6.17ZM14.90 6.17L14.90 6.17L14.90 6.17Q14.90 7.00 15.26 7.64L15.26 7.64L15.26 7.64Q15.62 8.27 16.26 8.64L16.26 8.64L16.26 8.64Q16.90 9.00 17.72 9.00L17.72 9.00L17.72 9.00Q18.55 9.00 19.19 8.67L19.19 8.67L19.19 8.67Q19.82 8.33 20.19 7.69L20.19 7.69L20.19 7.69Q20.55 7.06 20.55 6.17L20.55 6.17L20.55 6.17Q20.55 5.29 20.19 4.66L20.19 4.66L20.19 4.66Q19.82 4.02 19.19 3.68L19.19 3.68L19.19 3.68Q18.55 3.33 17.72 3.33L17.72 3.33L17.72 3.33Q16.90 3.33 16.26 3.68L16.26 3.68L16.26 3.68Q15.62 4.02 15.26 4.66L15.26 4.66L15.26 4.66Q14.90 5.29 14.90 6.17ZM21.60 3.47L21.60 8.86L23.49 8.86L23.49 5.50L23.49 5.50Q23.69 5.21 23.98 5.01L23.98 5.01L23.98 5.01Q24.26 4.80 24.57 4.80L24.57 4.80L24.57 4.80Q24.86 4.80 25.05 5.05L25.05 5.05L25.05 5.05Q25.23 5.29 25.23 5.89L25.23 5.89L25.23 8.86L27.12 8.86L27.12 5.47L27.12 5.47Q27.12 4.45 26.65 3.89L26.65 3.89L26.65 3.89Q26.18 3.33 25.27 3.33L25.27 3.33L25.27 3.33Q24.79 3.33 24.32 3.64L24.32 3.64L24.32 3.64Q23.84 3.95 23.49 4.48L23.49 4.48L23.49 3.47L21.60 3.47ZM30.13 5.36L30.13 5.36L30.13 5.36Q30.13 4.70 30.41 4.26L30.41 4.26L30.41 4.26Q30.70 3.81 31.12 3.57L31.12 3.57L31.12 3.57Q31.54 3.33 31.95 3.33L31.95 3.33L31.95 3.33Q32.59 3.33 33.05 3.55L33.05 3.55L33.05 3.55Q33.50 3.77 33.77 4.12L33.77 4.12L34.33 2.34L34.33 2.34Q33.99 2.00 33.47 1.79L33.47 1.79L33.47 1.79Q32.94 1.58 32.09 1.58L32.09 1.58L32.09 1.58Q30.87 1.58 29.97 2.09L29.97 2.09L29.97 2.09Q29.08 2.60 28.59 3.46L28.59 3.46L28.59 3.46Q28.10 4.31 28.10 5.36L28.10 5.36L28.10 5.36Q28.10 6.41 28.59 7.27L28.59 7.27L28.59 7.27Q29.08 8.12 29.97 8.63L29.97 8.63L29.97 8.63Q30.87 9.14 32.09 9.14L32.09 9.14L32.09 9.14Q32.94 9.14 33.47 8.93L33.47 8.93L33.47 8.93Q33.99 8.72 34.33 8.39L34.33 8.39L33.77 6.61L33.77 6.61Q33.50 6.96 33.05 7.18L33.05 7.18L33.05 7.18Q32.59 7.39 31.95 7.39L31.95 7.39L31.95 7.39Q31.54 7.39 31.12 7.15L31.12 7.15L31.12 7.15Q30.70 6.92 30.41 6.47L30.41 6.47L30.41 6.47Q30.13 6.02 30.13 5.36ZM37.20 6.17L37.20 6.17L37.20 6.17Q37.20 5.67 37.45 5.31L37.45 5.31L37.45 5.31Q37.70 4.94 38.21 4.94L38.21 4.94L38.21 4.94Q38.71 4.94 38.96 5.31L38.96 5.31L38.96 5.31Q39.21 5.67 39.21 6.17L39.21 6.17L39.21 6.17Q39.21 6.68 38.96 7.04L38.96 7.04L38.96 7.04Q38.71 7.39 38.21 7.39L38.21 7.39L38.21 7.39Q37.70 7.39 37.45 7.04L37.45 7.04L37.45 7.04Q37.20 6.68 37.20 6.17ZM35.38 6.17L35.38 6.17L35.38 6.17Q35.38 7.00 35.74 7.64L35.74 7.64L35.74 7.64Q36.11 8.27 36.74 8.64L36.74 8.64L36.74 8.64Q37.38 9.00 38.21 9.00L38.21 9.00L38.21 9.00Q39.03 9.00 39.67 8.67L39.67 8.67L39.67 8.67Q40.31 8.33 40.67 7.69L40.67 7.69L40.67 7.69Q41.03 7.06 41.03 6.17L41.03 6.17L41.03 6.17Q41.03 5.29 40.67 4.66L40.67 4.66L40.67 4.66Q40.31 4.02 39.67 3.68L39.67 3.68L39.67 3.68Q39.03 3.33 38.21 3.33L38.21 3.33L38.21 3.33Q37.38 3.33 36.74 3.68L36.74 3.68L36.74 3.68Q36.11 4.02 35.74 4.66L35.74 4.66L35.74 4.66Q35.38 5.29 35.38 6.17ZM42.48 3.47L42.48 8.86L44.37 8.86L44.37 3.47L42.48 3.47ZM42.08 1.34L43.41 2.67L44.76 1.34L43.41 0L42.08 1.34ZM45.88 3.47L45.88 8.86L47.77 8.86L47.77 5.50L47.77 5.50Q47.96 5.21 48.25 5.01L48.25 5.01L48.25 5.01Q48.54 4.80 48.85 4.80L48.85 4.80L48.85 4.80Q49.14 4.80 49.32 5.05L49.32 5.05L49.32 5.05Q49.50 5.29 49.50 5.89L49.50 5.89L49.50 8.86L51.39 8.86L51.39 5.47L51.39 5.47Q51.39 4.45 50.92 3.89L50.92 3.89L50.92 3.89Q50.46 3.33 49.55 3.33L49.55 3.33L49.55 3.33Q49.07 3.33 48.59 3.64L48.59 3.64L48.59 3.64Q48.12 3.95 47.77 4.48L47.77 4.48L47.77 3.47L45.88 3.47Z"></path></g><!----><g data-v-423bf9ae="" id="1299dde2-a5b7-435b-9af3-16868d2ed968" transform="matrix(2.8125,0,0,2.8125,0,0)" stroke="none" fill="#ffffff"><path d="M9.571 20.464l8.064 4.47 8.065-4.47v-8.939l-8.065-4.469-8.064 4.469z"></path><path d="M32 0H0v32h32l-5.054-5.172H5.054V5.172h21.892z"></path></g><!----></svg>